<mxfile host="app.diagrams.net" modified="2021-08-18T04:15:22.757Z" agent="5.0 (Macintosh; Intel Mac OS X 10_15_7) AppleWebKit/537.36 (KHTML, like Gecko) Chrome/92.0.4515.107 Safari/537.36" etag="tAjY0hsb4OJkE1pjzHNv" version="14.9.3" type="github" pages="2">
  <diagram name="Page-1" id="c4acf3e9-155e-7222-9cf6-157b1a14988f">
    <mxGraphModel dx="1186" dy="556" grid="1" gridSize="10" guides="1" tooltips="1" connect="1" arrows="1" fold="1" page="1" pageScale="1" pageWidth="850" pageHeight="1100" background="none" math="0" shadow="0">
      <root>
        <mxCell id="0" />
        <mxCell id="1" parent="0" />
        <mxCell id="MkF46tQVHWyLR7dr6ZJ9-12" value="" style="html=1;verticalAlign=bottom;endArrow=block;entryX=-0.1;entryY=0.067;entryDx=0;entryDy=0;entryPerimeter=0;" edge="1" parent="1" target="MkF46tQVHWyLR7dr6ZJ9-19">
          <mxGeometry width="80" relative="1" as="geometry">
            <mxPoint x="145" y="240" as="sourcePoint" />
            <mxPoint x="225" y="240" as="targetPoint" />
          </mxGeometry>
        </mxCell>
        <mxCell id="MkF46tQVHWyLR7dr6ZJ9-1" value="" style="shape=umlLifeline;participant=umlActor;perimeter=lifelinePerimeter;whiteSpace=wrap;html=1;container=1;collapsible=0;recursiveResize=0;verticalAlign=top;spacingTop=36;outlineConnect=0;" vertex="1" parent="1">
          <mxGeometry x="130" y="40" width="20" height="300" as="geometry" />
        </mxCell>
        <mxCell id="MkF46tQVHWyLR7dr6ZJ9-2" value="" style="shape=umlLifeline;participant=umlActor;perimeter=lifelinePerimeter;whiteSpace=wrap;html=1;container=1;collapsible=0;recursiveResize=0;verticalAlign=top;spacingTop=36;outlineConnect=0;" vertex="1" parent="1">
          <mxGeometry x="630" y="40" width="20" height="300" as="geometry" />
        </mxCell>
        <mxCell id="MkF46tQVHWyLR7dr6ZJ9-3" value="" style="shape=umlLifeline;participant=umlActor;perimeter=lifelinePerimeter;whiteSpace=wrap;html=1;container=1;collapsible=0;recursiveResize=0;verticalAlign=top;spacingTop=36;outlineConnect=0;" vertex="1" parent="1">
          <mxGeometry x="310" y="40" width="20" height="300" as="geometry" />
        </mxCell>
        <mxCell id="MkF46tQVHWyLR7dr6ZJ9-5" value="" style="html=1;points=[];perimeter=orthogonalPerimeter;" vertex="1" parent="1">
          <mxGeometry x="135" y="90" width="10" height="250" as="geometry" />
        </mxCell>
        <mxCell id="MkF46tQVHWyLR7dr6ZJ9-6" value="" style="html=1;points=[];perimeter=orthogonalPerimeter;" vertex="1" parent="1">
          <mxGeometry x="315" y="190" width="10" height="150" as="geometry" />
        </mxCell>
        <mxCell id="MkF46tQVHWyLR7dr6ZJ9-8" value=":E-Concordia Website" style="shape=umlLifeline;perimeter=lifelinePerimeter;whiteSpace=wrap;html=1;container=1;collapsible=0;recursiveResize=0;outlineConnect=0;" vertex="1" parent="1">
          <mxGeometry x="445" y="40" width="100" height="300" as="geometry" />
        </mxCell>
        <mxCell id="MkF46tQVHWyLR7dr6ZJ9-9" value="" style="html=1;verticalAlign=bottom;endArrow=block;" edge="1" parent="1">
          <mxGeometry width="80" relative="1" as="geometry">
            <mxPoint x="145" y="100" as="sourcePoint" />
            <mxPoint x="495" y="100" as="targetPoint" />
            <Array as="points" />
          </mxGeometry>
        </mxCell>
        <mxCell id="MkF46tQVHWyLR7dr6ZJ9-10" value="Edit Content" style="html=1;verticalAlign=bottom;endArrow=block;exitX=1.2;exitY=0.386;exitDx=0;exitDy=0;exitPerimeter=0;" edge="1" parent="1" target="MkF46tQVHWyLR7dr6ZJ9-8">
          <mxGeometry width="80" relative="1" as="geometry">
            <mxPoint x="147" y="127.05999999999995" as="sourcePoint" />
            <mxPoint x="315" y="126.5" as="targetPoint" />
            <Array as="points">
              <mxPoint x="180" y="127" />
              <mxPoint x="250" y="127" />
            </Array>
          </mxGeometry>
        </mxCell>
        <mxCell id="MkF46tQVHWyLR7dr6ZJ9-11" value="Feedback for Content" style="html=1;verticalAlign=bottom;endArrow=open;dashed=1;endSize=8;exitX=0;exitY=0.133;exitDx=0;exitDy=0;exitPerimeter=0;" edge="1" parent="1" source="MkF46tQVHWyLR7dr6ZJ9-6">
          <mxGeometry relative="1" as="geometry">
            <mxPoint x="225" y="209.5" as="sourcePoint" />
            <mxPoint x="145" y="209.5" as="targetPoint" />
          </mxGeometry>
        </mxCell>
        <mxCell id="MkF46tQVHWyLR7dr6ZJ9-14" value="&lt;font style=&quot;font-size: 11px&quot;&gt;Updated Content&lt;/font&gt;" style="text;html=1;strokeColor=none;fillColor=none;align=center;verticalAlign=middle;whiteSpace=wrap;rounded=0;" vertex="1" parent="1">
          <mxGeometry x="180" y="220" width="110" height="20" as="geometry" />
        </mxCell>
        <mxCell id="MkF46tQVHWyLR7dr6ZJ9-15" value="&lt;span style=&quot;font-size: 11px&quot;&gt;Publish to website[Approved Content]&lt;/span&gt;" style="text;html=1;strokeColor=none;fillColor=none;align=center;verticalAlign=middle;whiteSpace=wrap;rounded=0;" vertex="1" parent="1">
          <mxGeometry x="340" y="214" width="140" height="20" as="geometry" />
        </mxCell>
        <mxCell id="MkF46tQVHWyLR7dr6ZJ9-16" value="Notification for submitted content" style="html=1;verticalAlign=bottom;endArrow=open;dashed=1;endSize=8;" edge="1" parent="1" source="MkF46tQVHWyLR7dr6ZJ9-8">
          <mxGeometry relative="1" as="geometry">
            <mxPoint x="405" y="200" as="sourcePoint" />
            <mxPoint x="325" y="200" as="targetPoint" />
          </mxGeometry>
        </mxCell>
        <mxCell id="MkF46tQVHWyLR7dr6ZJ9-17" value="Notification for any comments" style="html=1;verticalAlign=bottom;endArrow=open;dashed=1;endSize=8;" edge="1" parent="1" source="MkF46tQVHWyLR7dr6ZJ9-8">
          <mxGeometry relative="1" as="geometry">
            <mxPoint x="225" y="150" as="sourcePoint" />
            <mxPoint x="145" y="150" as="targetPoint" />
          </mxGeometry>
        </mxCell>
        <mxCell id="MkF46tQVHWyLR7dr6ZJ9-18" value="&lt;font style=&quot;font-size: 11px&quot;&gt;Create Lessons/Quizzes&lt;/font&gt;&lt;span style=&quot;font-size: 11px ; background-color: rgb(255 , 255 , 255)&quot;&gt;[Draft/Pending]&lt;/span&gt;" style="text;html=1;align=center;verticalAlign=middle;resizable=0;points=[];autosize=1;strokeColor=none;" vertex="1" parent="1">
          <mxGeometry x="145" y="80" width="210" height="20" as="geometry" />
        </mxCell>
        <mxCell id="MkF46tQVHWyLR7dr6ZJ9-19" value="" style="html=1;points=[];perimeter=orthogonalPerimeter;" vertex="1" parent="1">
          <mxGeometry x="490" y="234" width="10" height="106" as="geometry" />
        </mxCell>
        <mxCell id="MkF46tQVHWyLR7dr6ZJ9-20" value="Delete Lessons[Published]" style="html=1;verticalAlign=bottom;endArrow=block;entryX=0;entryY=0.425;entryDx=0;entryDy=0;entryPerimeter=0;" edge="1" parent="1" target="MkF46tQVHWyLR7dr6ZJ9-19">
          <mxGeometry width="80" relative="1" as="geometry">
            <mxPoint x="325" y="278.5" as="sourcePoint" />
            <mxPoint x="488" y="276" as="targetPoint" />
          </mxGeometry>
        </mxCell>
        <mxCell id="MkF46tQVHWyLR7dr6ZJ9-22" value="Delete Content[Draft Version Only]" style="html=1;verticalAlign=bottom;endArrow=block;" edge="1" parent="1" target="MkF46tQVHWyLR7dr6ZJ9-8">
          <mxGeometry width="80" relative="1" as="geometry">
            <mxPoint x="145" y="170" as="sourcePoint" />
            <mxPoint x="225" y="170" as="targetPoint" />
          </mxGeometry>
        </mxCell>
        <mxCell id="MkF46tQVHWyLR7dr6ZJ9-23" value="View Content[Published]" style="html=1;verticalAlign=bottom;endArrow=block;" edge="1" parent="1" target="MkF46tQVHWyLR7dr6ZJ9-2">
          <mxGeometry width="80" relative="1" as="geometry">
            <mxPoint x="500" y="250" as="sourcePoint" />
            <mxPoint x="580" y="250" as="targetPoint" />
          </mxGeometry>
        </mxCell>
        <mxCell id="MkF46tQVHWyLR7dr6ZJ9-24" value="Submit Quizzes" style="html=1;verticalAlign=bottom;endArrow=open;dashed=1;endSize=8;" edge="1" parent="1" source="MkF46tQVHWyLR7dr6ZJ9-2">
          <mxGeometry relative="1" as="geometry">
            <mxPoint x="580" y="278.5" as="sourcePoint" />
            <mxPoint x="500" y="278.5" as="targetPoint" />
          </mxGeometry>
        </mxCell>
        <mxCell id="MkF46tQVHWyLR7dr6ZJ9-25" value="Trainer" style="text;html=1;align=center;verticalAlign=middle;resizable=0;points=[];autosize=1;strokeColor=none;" vertex="1" parent="1">
          <mxGeometry x="115" y="20" width="50" height="20" as="geometry" />
        </mxCell>
        <mxCell id="MkF46tQVHWyLR7dr6ZJ9-26" value="Admin" style="text;html=1;align=center;verticalAlign=middle;resizable=0;points=[];autosize=1;strokeColor=none;" vertex="1" parent="1">
          <mxGeometry x="295" y="20" width="50" height="20" as="geometry" />
        </mxCell>
        <mxCell id="MkF46tQVHWyLR7dr6ZJ9-27" value="Student" style="text;html=1;align=center;verticalAlign=middle;resizable=0;points=[];autosize=1;strokeColor=none;" vertex="1" parent="1">
          <mxGeometry x="610" y="20" width="60" height="20" as="geometry" />
        </mxCell>
      </root>
    </mxGraphModel>
  </diagram>
  <diagram id="EXduLRsqAAvxBC0XxvHG" name="Page-2">
    <mxGraphModel dx="1186" dy="556" grid="1" gridSize="10" guides="1" tooltips="1" connect="1" arrows="1" fold="1" page="1" pageScale="1" pageWidth="850" pageHeight="1100" math="0" shadow="0">
      <root>
        <mxCell id="HPy3CGdWLULP_NCK4T1V-0" />
        <mxCell id="HPy3CGdWLULP_NCK4T1V-1" parent="HPy3CGdWLULP_NCK4T1V-0" />
        <mxCell id="hn5SYi2-JxLcmBbS-fzx-0" value="" style="ellipse;html=1;shape=startState;fillColor=#000000;strokeColor=#ff0000;" vertex="1" parent="HPy3CGdWLULP_NCK4T1V-1">
          <mxGeometry x="255" y="80" width="30" height="30" as="geometry" />
        </mxCell>
        <mxCell id="hn5SYi2-JxLcmBbS-fzx-1" value="" style="edgeStyle=orthogonalEdgeStyle;html=1;verticalAlign=bottom;endArrow=open;endSize=8;strokeColor=#ff0000;" edge="1" source="hn5SYi2-JxLcmBbS-fzx-0" parent="HPy3CGdWLULP_NCK4T1V-1">
          <mxGeometry relative="1" as="geometry">
            <mxPoint x="355" y="95" as="targetPoint" />
          </mxGeometry>
        </mxCell>
        <mxCell id="hn5SYi2-JxLcmBbS-fzx-2" value="E-Concordia Drive: Students" style="text;html=1;align=center;verticalAlign=middle;resizable=0;points=[];autosize=1;strokeColor=none;" vertex="1" parent="HPy3CGdWLULP_NCK4T1V-1">
          <mxGeometry x="220" y="40" width="170" height="20" as="geometry" />
        </mxCell>
        <mxCell id="hn5SYi2-JxLcmBbS-fzx-6" style="edgeStyle=orthogonalEdgeStyle;rounded=0;orthogonalLoop=1;jettySize=auto;html=1;exitX=0.5;exitY=1;exitDx=0;exitDy=0;entryX=0.5;entryY=0;entryDx=0;entryDy=0;" edge="1" parent="HPy3CGdWLULP_NCK4T1V-1" source="hn5SYi2-JxLcmBbS-fzx-4">
          <mxGeometry relative="1" as="geometry">
            <mxPoint x="415" y="180" as="targetPoint" />
          </mxGeometry>
        </mxCell>
        <mxCell id="hn5SYi2-JxLcmBbS-fzx-4" value="Login to the Website" style="rounded=1;whiteSpace=wrap;html=1;" vertex="1" parent="HPy3CGdWLULP_NCK4T1V-1">
          <mxGeometry x="355" y="70" width="120" height="60" as="geometry" />
        </mxCell>
        <mxCell id="hn5SYi2-JxLcmBbS-fzx-9" style="edgeStyle=orthogonalEdgeStyle;rounded=0;orthogonalLoop=1;jettySize=auto;html=1;exitX=1;exitY=0.5;exitDx=0;exitDy=0;entryX=0;entryY=0.5;entryDx=0;entryDy=0;" edge="1" parent="HPy3CGdWLULP_NCK4T1V-1" source="hn5SYi2-JxLcmBbS-fzx-7" target="hn5SYi2-JxLcmBbS-fzx-8">
          <mxGeometry relative="1" as="geometry" />
        </mxCell>
        <mxCell id="hn5SYi2-JxLcmBbS-fzx-12" style="edgeStyle=orthogonalEdgeStyle;rounded=0;orthogonalLoop=1;jettySize=auto;html=1;exitX=0.5;exitY=1;exitDx=0;exitDy=0;entryX=0.5;entryY=0;entryDx=0;entryDy=0;" edge="1" parent="HPy3CGdWLULP_NCK4T1V-1" source="hn5SYi2-JxLcmBbS-fzx-7" target="hn5SYi2-JxLcmBbS-fzx-11">
          <mxGeometry relative="1" as="geometry" />
        </mxCell>
        <mxCell id="hn5SYi2-JxLcmBbS-fzx-7" value="" style="rhombus;whiteSpace=wrap;html=1;" vertex="1" parent="HPy3CGdWLULP_NCK4T1V-1">
          <mxGeometry x="392.5" y="180" width="45" height="40" as="geometry" />
        </mxCell>
        <mxCell id="hn5SYi2-JxLcmBbS-fzx-8" value="No Access" style="rounded=1;whiteSpace=wrap;html=1;" vertex="1" parent="HPy3CGdWLULP_NCK4T1V-1">
          <mxGeometry x="575" y="180" width="80" height="40" as="geometry" />
        </mxCell>
        <mxCell id="hn5SYi2-JxLcmBbS-fzx-10" value="[Authentication Fails]" style="text;html=1;align=center;verticalAlign=middle;resizable=0;points=[];autosize=1;strokeColor=none;" vertex="1" parent="HPy3CGdWLULP_NCK4T1V-1">
          <mxGeometry x="437.5" y="180" width="130" height="20" as="geometry" />
        </mxCell>
        <mxCell id="hn5SYi2-JxLcmBbS-fzx-15" style="edgeStyle=orthogonalEdgeStyle;rounded=0;orthogonalLoop=1;jettySize=auto;html=1;exitX=0.5;exitY=1;exitDx=0;exitDy=0;entryX=0.5;entryY=0;entryDx=0;entryDy=0;" edge="1" parent="HPy3CGdWLULP_NCK4T1V-1" source="hn5SYi2-JxLcmBbS-fzx-11" target="hn5SYi2-JxLcmBbS-fzx-14">
          <mxGeometry relative="1" as="geometry" />
        </mxCell>
        <mxCell id="hn5SYi2-JxLcmBbS-fzx-11" value="Dashboard page" style="rounded=1;whiteSpace=wrap;html=1;" vertex="1" parent="HPy3CGdWLULP_NCK4T1V-1">
          <mxGeometry x="375" y="260" width="80" height="40" as="geometry" />
        </mxCell>
        <mxCell id="hn5SYi2-JxLcmBbS-fzx-13" value="[Authentication Pass]" style="text;html=1;align=center;verticalAlign=middle;resizable=0;points=[];autosize=1;strokeColor=none;" vertex="1" parent="HPy3CGdWLULP_NCK4T1V-1">
          <mxGeometry x="285" y="220" width="130" height="20" as="geometry" />
        </mxCell>
        <mxCell id="hn5SYi2-JxLcmBbS-fzx-17" style="edgeStyle=orthogonalEdgeStyle;rounded=0;orthogonalLoop=1;jettySize=auto;html=1;exitX=1;exitY=0.5;exitDx=0;exitDy=0;entryX=0;entryY=0.5;entryDx=0;entryDy=0;" edge="1" parent="HPy3CGdWLULP_NCK4T1V-1" source="hn5SYi2-JxLcmBbS-fzx-14" target="hn5SYi2-JxLcmBbS-fzx-16">
          <mxGeometry relative="1" as="geometry" />
        </mxCell>
        <mxCell id="hn5SYi2-JxLcmBbS-fzx-20" style="edgeStyle=orthogonalEdgeStyle;rounded=0;orthogonalLoop=1;jettySize=auto;html=1;exitX=0.5;exitY=1;exitDx=0;exitDy=0;entryX=0.5;entryY=0;entryDx=0;entryDy=0;" edge="1" parent="HPy3CGdWLULP_NCK4T1V-1" source="hn5SYi2-JxLcmBbS-fzx-14" target="hn5SYi2-JxLcmBbS-fzx-19">
          <mxGeometry relative="1" as="geometry" />
        </mxCell>
        <mxCell id="hn5SYi2-JxLcmBbS-fzx-23" style="edgeStyle=orthogonalEdgeStyle;rounded=0;orthogonalLoop=1;jettySize=auto;html=1;exitX=0;exitY=0.5;exitDx=0;exitDy=0;entryX=1;entryY=0.5;entryDx=0;entryDy=0;" edge="1" parent="HPy3CGdWLULP_NCK4T1V-1" source="hn5SYi2-JxLcmBbS-fzx-14" target="hn5SYi2-JxLcmBbS-fzx-18">
          <mxGeometry relative="1" as="geometry" />
        </mxCell>
        <mxCell id="hn5SYi2-JxLcmBbS-fzx-14" value="Lesson" style="rhombus;whiteSpace=wrap;html=1;" vertex="1" parent="HPy3CGdWLULP_NCK4T1V-1">
          <mxGeometry x="380" y="330" width="70" height="60" as="geometry" />
        </mxCell>
        <mxCell id="hn5SYi2-JxLcmBbS-fzx-32" style="edgeStyle=orthogonalEdgeStyle;rounded=0;orthogonalLoop=1;jettySize=auto;html=1;exitX=0.25;exitY=1;exitDx=0;exitDy=0;entryX=0.75;entryY=0.5;entryDx=0;entryDy=0;entryPerimeter=0;" edge="1" parent="HPy3CGdWLULP_NCK4T1V-1" source="hn5SYi2-JxLcmBbS-fzx-16" target="hn5SYi2-JxLcmBbS-fzx-27">
          <mxGeometry relative="1" as="geometry" />
        </mxCell>
        <mxCell id="hn5SYi2-JxLcmBbS-fzx-16" value="Return where left at" style="rounded=1;whiteSpace=wrap;html=1;" vertex="1" parent="HPy3CGdWLULP_NCK4T1V-1">
          <mxGeometry x="620" y="330" width="120" height="60" as="geometry" />
        </mxCell>
        <mxCell id="hn5SYi2-JxLcmBbS-fzx-18" value="Start Video Again" style="rounded=1;whiteSpace=wrap;html=1;" vertex="1" parent="HPy3CGdWLULP_NCK4T1V-1">
          <mxGeometry x="130" y="330" width="120" height="60" as="geometry" />
        </mxCell>
        <mxCell id="hn5SYi2-JxLcmBbS-fzx-33" style="edgeStyle=orthogonalEdgeStyle;rounded=0;orthogonalLoop=1;jettySize=auto;html=1;exitX=1;exitY=0.5;exitDx=0;exitDy=0;entryX=0.25;entryY=0.5;entryDx=0;entryDy=0;entryPerimeter=0;" edge="1" parent="HPy3CGdWLULP_NCK4T1V-1" source="hn5SYi2-JxLcmBbS-fzx-19" target="hn5SYi2-JxLcmBbS-fzx-27">
          <mxGeometry relative="1" as="geometry" />
        </mxCell>
        <mxCell id="hn5SYi2-JxLcmBbS-fzx-19" value="Start New Lesson" style="rounded=1;whiteSpace=wrap;html=1;" vertex="1" parent="HPy3CGdWLULP_NCK4T1V-1">
          <mxGeometry x="355" y="470" width="120" height="60" as="geometry" />
        </mxCell>
        <mxCell id="hn5SYi2-JxLcmBbS-fzx-24" value="[Complete]" style="text;html=1;align=center;verticalAlign=middle;resizable=0;points=[];autosize=1;strokeColor=none;" vertex="1" parent="HPy3CGdWLULP_NCK4T1V-1">
          <mxGeometry x="280" y="330" width="70" height="20" as="geometry" />
        </mxCell>
        <mxCell id="hn5SYi2-JxLcmBbS-fzx-25" value="[Incomplete]" style="text;html=1;align=center;verticalAlign=middle;resizable=0;points=[];autosize=1;strokeColor=none;" vertex="1" parent="HPy3CGdWLULP_NCK4T1V-1">
          <mxGeometry x="450" y="330" width="80" height="20" as="geometry" />
        </mxCell>
        <mxCell id="hn5SYi2-JxLcmBbS-fzx-26" value="[Not Opened]" style="text;html=1;align=center;verticalAlign=middle;resizable=0;points=[];autosize=1;strokeColor=none;" vertex="1" parent="HPy3CGdWLULP_NCK4T1V-1">
          <mxGeometry x="435" y="410" width="90" height="20" as="geometry" />
        </mxCell>
        <mxCell id="hn5SYi2-JxLcmBbS-fzx-27" value="" style="shape=line;html=1;strokeWidth=6;strokeColor=#ff0000;" vertex="1" parent="HPy3CGdWLULP_NCK4T1V-1">
          <mxGeometry x="500" y="560" width="200" height="10" as="geometry" />
        </mxCell>
        <mxCell id="hn5SYi2-JxLcmBbS-fzx-28" value="" style="edgeStyle=orthogonalEdgeStyle;html=1;verticalAlign=bottom;endArrow=open;endSize=8;strokeColor=#ff0000;" edge="1" source="hn5SYi2-JxLcmBbS-fzx-27" parent="HPy3CGdWLULP_NCK4T1V-1">
          <mxGeometry relative="1" as="geometry">
            <mxPoint x="600" y="650" as="targetPoint" />
            <Array as="points">
              <mxPoint x="600" y="640" />
            </Array>
          </mxGeometry>
        </mxCell>
        <mxCell id="hn5SYi2-JxLcmBbS-fzx-37" style="edgeStyle=orthogonalEdgeStyle;rounded=0;orthogonalLoop=1;jettySize=auto;html=1;exitX=0.5;exitY=1;exitDx=0;exitDy=0;entryX=0.5;entryY=0;entryDx=0;entryDy=0;" edge="1" parent="HPy3CGdWLULP_NCK4T1V-1" source="hn5SYi2-JxLcmBbS-fzx-34" target="hn5SYi2-JxLcmBbS-fzx-35">
          <mxGeometry relative="1" as="geometry" />
        </mxCell>
        <mxCell id="hn5SYi2-JxLcmBbS-fzx-34" value="Attempt Quiz" style="rounded=1;whiteSpace=wrap;html=1;" vertex="1" parent="HPy3CGdWLULP_NCK4T1V-1">
          <mxGeometry x="540" y="650" width="120" height="60" as="geometry" />
        </mxCell>
        <mxCell id="hn5SYi2-JxLcmBbS-fzx-38" style="edgeStyle=orthogonalEdgeStyle;rounded=0;orthogonalLoop=1;jettySize=auto;html=1;exitX=0;exitY=0.5;exitDx=0;exitDy=0;entryX=0;entryY=0.5;entryDx=0;entryDy=0;" edge="1" parent="HPy3CGdWLULP_NCK4T1V-1" source="hn5SYi2-JxLcmBbS-fzx-35" target="hn5SYi2-JxLcmBbS-fzx-34">
          <mxGeometry relative="1" as="geometry" />
        </mxCell>
        <mxCell id="hn5SYi2-JxLcmBbS-fzx-41" style="edgeStyle=orthogonalEdgeStyle;rounded=0;orthogonalLoop=1;jettySize=auto;html=1;exitX=1;exitY=0.5;exitDx=0;exitDy=0;entryX=0;entryY=0.5;entryDx=0;entryDy=0;" edge="1" parent="HPy3CGdWLULP_NCK4T1V-1" source="hn5SYi2-JxLcmBbS-fzx-35" target="hn5SYi2-JxLcmBbS-fzx-40">
          <mxGeometry relative="1" as="geometry" />
        </mxCell>
        <mxCell id="hn5SYi2-JxLcmBbS-fzx-35" value="Answer&lt;br&gt;All Questions" style="rhombus;whiteSpace=wrap;html=1;" vertex="1" parent="HPy3CGdWLULP_NCK4T1V-1">
          <mxGeometry x="550" y="750" width="100" height="80" as="geometry" />
        </mxCell>
        <mxCell id="hn5SYi2-JxLcmBbS-fzx-39" value="NO" style="text;html=1;align=center;verticalAlign=middle;resizable=0;points=[];autosize=1;strokeColor=none;" vertex="1" parent="HPy3CGdWLULP_NCK4T1V-1">
          <mxGeometry x="515" y="730" width="30" height="20" as="geometry" />
        </mxCell>
        <mxCell id="hn5SYi2-JxLcmBbS-fzx-54" style="edgeStyle=orthogonalEdgeStyle;rounded=0;orthogonalLoop=1;jettySize=auto;html=1;exitX=0.5;exitY=1;exitDx=0;exitDy=0;entryX=1;entryY=0.5;entryDx=0;entryDy=0;" edge="1" parent="HPy3CGdWLULP_NCK4T1V-1" source="hn5SYi2-JxLcmBbS-fzx-40" target="hn5SYi2-JxLcmBbS-fzx-52">
          <mxGeometry relative="1" as="geometry" />
        </mxCell>
        <mxCell id="hn5SYi2-JxLcmBbS-fzx-40" value="Finish Attempt" style="rounded=1;whiteSpace=wrap;html=1;" vertex="1" parent="HPy3CGdWLULP_NCK4T1V-1">
          <mxGeometry x="680" y="760" width="120" height="60" as="geometry" />
        </mxCell>
        <mxCell id="hn5SYi2-JxLcmBbS-fzx-44" style="edgeStyle=orthogonalEdgeStyle;rounded=0;orthogonalLoop=1;jettySize=auto;html=1;exitX=0.5;exitY=0;exitDx=0;exitDy=0;entryX=0;entryY=0.5;entryDx=0;entryDy=0;" edge="1" parent="HPy3CGdWLULP_NCK4T1V-1" source="hn5SYi2-JxLcmBbS-fzx-42" target="hn5SYi2-JxLcmBbS-fzx-19">
          <mxGeometry relative="1" as="geometry" />
        </mxCell>
        <mxCell id="hn5SYi2-JxLcmBbS-fzx-53" style="edgeStyle=orthogonalEdgeStyle;rounded=0;orthogonalLoop=1;jettySize=auto;html=1;exitX=0.5;exitY=1;exitDx=0;exitDy=0;entryX=0;entryY=0.5;entryDx=0;entryDy=0;" edge="1" parent="HPy3CGdWLULP_NCK4T1V-1" source="hn5SYi2-JxLcmBbS-fzx-42" target="hn5SYi2-JxLcmBbS-fzx-52">
          <mxGeometry relative="1" as="geometry" />
        </mxCell>
        <mxCell id="hn5SYi2-JxLcmBbS-fzx-42" value="Complete All Lesson" style="rhombus;whiteSpace=wrap;html=1;" vertex="1" parent="HPy3CGdWLULP_NCK4T1V-1">
          <mxGeometry x="210" y="680" width="100" height="100" as="geometry" />
        </mxCell>
        <mxCell id="hn5SYi2-JxLcmBbS-fzx-45" value="NO" style="text;html=1;align=center;verticalAlign=middle;resizable=0;points=[];autosize=1;strokeColor=none;" vertex="1" parent="HPy3CGdWLULP_NCK4T1V-1">
          <mxGeometry x="255" y="610" width="30" height="20" as="geometry" />
        </mxCell>
        <mxCell id="hn5SYi2-JxLcmBbS-fzx-46" value="YES" style="text;html=1;align=center;verticalAlign=middle;resizable=0;points=[];autosize=1;strokeColor=none;" vertex="1" parent="HPy3CGdWLULP_NCK4T1V-1">
          <mxGeometry x="640" y="770" width="40" height="20" as="geometry" />
        </mxCell>
        <mxCell id="hn5SYi2-JxLcmBbS-fzx-50" value="YES" style="text;html=1;align=center;verticalAlign=middle;resizable=0;points=[];autosize=1;strokeColor=none;" vertex="1" parent="HPy3CGdWLULP_NCK4T1V-1">
          <mxGeometry x="300" y="820" width="40" height="20" as="geometry" />
        </mxCell>
        <mxCell id="hn5SYi2-JxLcmBbS-fzx-56" style="edgeStyle=orthogonalEdgeStyle;rounded=0;orthogonalLoop=1;jettySize=auto;html=1;exitX=0.5;exitY=1;exitDx=0;exitDy=0;entryX=0.5;entryY=0;entryDx=0;entryDy=0;" edge="1" parent="HPy3CGdWLULP_NCK4T1V-1" source="hn5SYi2-JxLcmBbS-fzx-52" target="hn5SYi2-JxLcmBbS-fzx-55">
          <mxGeometry relative="1" as="geometry" />
        </mxCell>
        <mxCell id="hn5SYi2-JxLcmBbS-fzx-52" value="Give Final Exam" style="rounded=1;whiteSpace=wrap;html=1;" vertex="1" parent="HPy3CGdWLULP_NCK4T1V-1">
          <mxGeometry x="360" y="870" width="120" height="60" as="geometry" />
        </mxCell>
        <mxCell id="hn5SYi2-JxLcmBbS-fzx-55" value="" style="ellipse;html=1;shape=endState;fillColor=#000000;strokeColor=#ff0000;" vertex="1" parent="HPy3CGdWLULP_NCK4T1V-1">
          <mxGeometry x="404.5" y="980" width="30" height="30" as="geometry" />
        </mxCell>
      </root>
    </mxGraphModel>
  </diagram>
</mxfile>
